<?xml version="1.0" standalone="no"?>
<!DOCTYPE svg PUBLIC "-//W3C//DTD SVG 20010904//EN"
 "http://www.w3.org/TR/2001/REC-SVG-20010904/DTD/svg10.dtd">
<svg version="1.0" xmlns="http://www.w3.org/2000/svg"
 width="1920.000000pt" height="1920.000000pt" viewBox="0 0 1920.000000 1920.000000"
 preserveAspectRatio="xMidYMid meet">
<metadata>
Created by potrace 1.15, written by Peter Selinger 2001-2017
</metadata>
<g transform="translate(0.000000,1920.000000) scale(0.100000,-0.100000)"
fill="#000000" stroke="none">
<path d="M7221 16567 c-12 -13 -37 -62 -57 -108 -36 -86 -67 -129 -91 -129 -8
0 -25 24 -37 53 -31 69 -46 81 -74 61 -12 -8 -22 -26 -22 -39 0 -13 -7 -45
-16 -70 -8 -26 -19 -71 -24 -102 -16 -99 -47 -105 -80 -15 -51 135 -69 113
-125 -150 -9 -43 -21 -80 -26 -84 -6 -3 -19 2 -29 11 -40 36 -58 10 -86 -126
-18 -92 -38 -119 -84 -119 -29 0 -40 -15 -40 -55 0 -83 -125 -217 -225 -241
-16 -4 -47 -22 -68 -40 -20 -19 -43 -34 -51 -34 -7 0 -52 -40 -99 -89 -99
-103 -124 -155 -92 -191 15 -17 30 -21 74 -19 31 0 103 -8 161 -20 68 -13 144
-21 216 -21 111 0 112 0 118 25 24 94 159 0 141 -98 -4 -19 -16 -50 -28 -68
-119 -191 -155 -376 -98 -502 12 -26 21 -67 21 -92 0 -110 123 -264 253 -320
56 -23 68 -33 77 -61 6 -18 18 -38 26 -44 24 -21 16 -51 -26 -96 -22 -24 -40
-48 -40 -54 0 -6 -24 -45 -54 -88 -63 -91 -206 -353 -206 -379 0 -10 -9 -29
-20 -43 -11 -14 -20 -37 -20 -51 0 -14 -11 -36 -25 -49 -14 -13 -25 -32 -25
-43 0 -10 -11 -40 -25 -66 -28 -52 -105 -257 -105 -279 0 -8 -9 -33 -19 -56
-11 -23 -31 -77 -44 -121 -28 -90 -74 -225 -93 -270 -7 -16 -16 -42 -19 -58
-4 -15 -11 -30 -16 -33 -5 -3 -9 -22 -9 -42 0 -20 -14 -84 -31 -142 -16 -58
-39 -154 -51 -215 -11 -60 -27 -124 -34 -142 -8 -17 -14 -44 -14 -60 0 -15 -7
-55 -15 -88 -8 -33 -14 -76 -15 -96 0 -20 -7 -54 -16 -75 -9 -22 -18 -57 -20
-79 -2 -22 -8 -71 -14 -110 -5 -38 -15 -108 -21 -155 -18 -131 -20 -773 -3
-830 8 -25 14 -86 14 -137 0 -50 5 -104 11 -120 6 -15 13 -53 15 -83 3 -30 9
-71 14 -90 6 -19 13 -78 17 -130 3 -52 12 -112 20 -134 7 -21 13 -53 13 -70 0
-17 7 -53 15 -80 8 -27 15 -66 15 -87 0 -21 4 -40 8 -43 5 -3 12 -46 15 -96 4
-52 16 -114 28 -147 12 -32 29 -92 39 -133 9 -41 22 -91 28 -110 20 -68 34
-125 39 -165 2 -22 15 -61 28 -86 13 -25 27 -65 31 -90 4 -24 17 -65 30 -91
13 -25 32 -77 43 -115 10 -37 33 -98 51 -136 18 -37 34 -86 38 -109 4 -31 46
-111 154 -290 81 -137 148 -252 148 -257 0 -23 209 -353 255 -401 18 -19 48
-58 67 -87 48 -72 738 -768 820 -826 37 -26 69 -47 72 -47 3 0 16 -10 28 -21
33 -30 536 -340 573 -352 16 -5 41 -20 55 -33 14 -12 66 -40 115 -62 50 -22
121 -58 160 -81 38 -23 80 -41 93 -41 48 0 132 -68 132 -106 0 -28 41 -61 86
-70 20 -4 34 -12 34 -21 0 -7 11 -25 25 -38 22 -23 31 -25 129 -25 l104 0 229
-231 c125 -127 241 -238 257 -246 16 -8 46 -32 67 -54 21 -21 46 -39 57 -39
10 0 35 -18 56 -39 21 -22 50 -42 64 -46 15 -4 42 -21 62 -38 19 -18 69 -51
110 -74 41 -22 83 -50 94 -62 10 -11 44 -30 75 -41 31 -12 76 -34 101 -50 25
-16 81 -43 125 -60 44 -17 101 -45 126 -61 25 -16 52 -29 60 -29 8 0 21 -5 29
-10 12 -8 8 -16 -24 -43 l-39 -34 -18 -145 c-10 -80 -22 -164 -29 -187 -10
-38 -13 -41 -46 -41 -31 0 -37 -4 -54 -43 -11 -23 -20 -54 -20 -69 0 -15 -11
-44 -25 -64 -28 -41 -31 -61 -13 -99 9 -21 9 -27 -5 -38 -15 -11 -16 -29 -9
-167 7 -135 5 -161 -9 -200 -10 -25 -27 -76 -39 -115 -22 -72 -41 -101 -143
-217 -55 -63 -207 -178 -235 -178 -8 0 -10 8 -6 25 6 23 3 25 -27 25 -106 2
-309 19 -325 28 -10 5 -76 13 -145 17 -109 6 -131 5 -163 -10 -43 -21 -110
-93 -125 -135 -12 -36 0 -39 44 -10 51 34 76 27 138 -39 32 -33 57 -66 57 -74
0 -11 -24 -15 -107 -20 -133 -8 -244 -26 -483 -78 -228 -49 -220 -47 -220 -65
0 -8 -21 -25 -48 -37 -59 -28 -132 -105 -132 -140 0 -33 12 -40 45 -27 23 9
31 6 56 -14 45 -38 92 -43 153 -16 30 13 86 26 136 31 46 5 96 13 110 18 14 5
63 15 109 22 47 6 96 18 110 25 16 9 60 14 117 14 70 0 102 5 135 20 37 16 66
20 187 20 97 0 142 -4 142 -11 0 -17 -60 -69 -80 -69 -29 0 -232 -106 -277
-145 -45 -38 -67 -89 -61 -139 4 -41 18 -42 64 -5 l39 31 3 -26 c3 -25 6 -26
68 -26 60 0 70 4 142 48 51 32 98 53 137 60 37 8 73 23 95 40 47 38 74 52 102
52 13 0 42 16 66 34 24 19 57 38 75 42 49 10 87 32 137 79 25 23 58 50 74 60
27 18 29 18 83 0 55 -19 56 -19 117 3 33 11 92 28 130 37 87 19 123 42 178
108 23 29 43 53 44 55 1 2 24 -8 51 -21 26 -13 59 -28 73 -32 14 -4 53 -21 87
-37 58 -28 65 -29 113 -19 44 9 57 8 87 -6 20 -9 52 -19 72 -22 30 -5 37 -11
39 -33 8 -70 -149 -263 -236 -289 -38 -11 -44 -10 -80 13 -21 14 -56 28 -77
31 -22 4 -177 3 -345 -1 -364 -10 -377 -13 -416 -96 -20 -44 -22 -51 -8 -54 8
-2 23 3 33 12 27 24 41 20 88 -26 52 -51 56 -78 13 -78 -17 0 -45 -8 -63 -17
-18 -9 -57 -20 -87 -24 -81 -10 -279 -55 -325 -73 -22 -8 -65 -22 -96 -31 -47
-13 -67 -26 -121 -83 -52 -53 -67 -76 -72 -109 -12 -68 26 -111 56 -63 16 25
30 25 53 0 24 -27 85 -44 128 -36 19 4 52 20 72 36 33 26 46 30 99 30 43 0 70
6 94 20 18 11 43 20 55 20 13 0 32 7 43 15 12 9 42 14 80 15 34 0 78 7 97 15
20 8 67 15 104 15 37 1 86 7 108 15 25 9 78 15 139 15 90 0 102 2 124 23 21
20 37 23 155 28 181 9 194 -4 100 -103 -58 -61 -292 -275 -412 -378 -42 -36
-70 -69 -83 -99 -24 -57 -27 -126 -6 -147 14 -14 18 -14 39 10 23 25 25 25 65
11 74 -25 102 -9 247 146 9 11 24 19 32 19 8 0 43 26 77 58 35 32 86 75 115
96 29 20 66 55 84 77 17 22 48 48 68 58 20 11 50 34 66 51 17 18 65 63 107
102 l77 69 20 -20 c39 -39 133 -20 206 41 17 13 45 30 62 37 42 17 99 80 122
135 l19 42 133 -13 c115 -11 145 -11 212 2 44 8 97 15 119 15 71 0 93 24 113
120 13 66 32 74 88 35 49 -32 57 -32 57 5 0 44 -50 95 -118 120 -77 29 -228
26 -262 -5 -12 -11 -37 -20 -58 -21 -20 0 -73 -4 -117 -8 -71 -7 -83 -6 -104
11 -22 18 -23 23 -22 153 1 90 8 167 21 229 11 52 20 112 20 134 0 21 7 67 16
100 9 34 13 73 10 88 -3 14 2 57 10 95 8 38 14 84 14 102 0 18 7 49 15 68 8
20 27 89 41 153 30 133 71 258 138 416 51 121 76 205 76 256 0 43 -8 54 -42
63 -64 15 -17 42 191 110 164 54 250 95 363 172 44 30 85 54 92 54 7 0 23 12
37 26 13 14 39 35 59 47 19 11 59 42 88 69 51 46 56 48 112 48 31 0 77 7 100
15 23 8 57 15 74 15 40 0 122 24 192 56 29 13 92 33 141 44 97 23 90 20 258
115 66 37 151 78 190 92 95 34 133 55 186 99 24 20 73 50 109 67 57 25 89 53
249 215 111 113 195 207 213 239 16 29 63 90 105 135 41 46 85 97 98 113 31
40 115 207 115 228 0 9 5 19 10 22 6 3 10 21 10 39 0 19 7 39 15 46 9 7 15 29
15 52 0 21 7 55 15 75 8 19 15 55 15 79 0 24 8 63 19 86 44 101 51 120 51 146
0 16 4 32 9 38 16 16 52 147 60 219 5 39 5 237 0 440 -4 204 -5 405 -2 448 7
92 13 99 122 127 67 17 76 23 182 121 72 68 120 121 135 152 16 30 46 64 83
93 32 25 73 66 92 92 18 26 72 92 120 148 93 108 133 183 150 283 6 30 13 59
16 65 4 5 12 49 18 96 10 72 18 95 54 149 24 37 41 76 41 93 0 16 19 65 42
111 l41 82 3 145 c2 138 4 148 32 210 l31 65 3 430 2 430 -27 52 c-24 47 -27
63 -27 152 l0 100 56 63 c122 136 167 235 163 363 -2 67 1 75 50 166 28 53 48
98 46 101 -3 3 1 23 10 45 13 33 15 76 12 259 -2 120 -7 233 -12 251 -5 25 -2
40 16 69 16 27 23 52 22 88 0 28 6 67 14 87 11 28 14 73 11 185 -3 148 -3 149
-25 146 -13 -2 -23 0 -23 3 0 4 18 45 40 92 22 47 40 94 40 105 0 10 7 33 16
50 14 26 15 56 10 187 l-5 156 -31 25 c-36 30 -37 41 -8 88 18 29 23 55 26
128 5 114 -8 146 -85 203 -65 48 -129 69 -235 78 -75 6 -79 7 -97 39 -26 43
-117 114 -147 114 -14 0 -39 8 -57 17 -22 11 -66 18 -144 21 -100 4 -120 2
-193 -22 -45 -14 -88 -26 -97 -26 -33 0 -261 -114 -347 -174 -124 -85 -267
-224 -335 -326 -50 -73 -109 -175 -232 -395 -16 -28 -53 -98 -82 -155 -105
-203 -148 -280 -156 -280 -4 0 -29 -30 -55 -66 -64 -89 -100 -104 -265 -114
-69 -4 -139 -13 -154 -19 -16 -6 -55 -11 -87 -11 -32 0 -100 -9 -152 -19 -52
-11 -171 -27 -264 -36 -93 -9 -198 -25 -234 -35 -36 -11 -120 -27 -188 -35
-67 -9 -134 -20 -148 -25 -14 -6 -58 -10 -97 -10 -40 0 -144 -13 -232 -29 -88
-16 -190 -32 -227 -35 -36 -4 -82 -13 -100 -20 -19 -8 -83 -19 -143 -25 -61
-5 -151 -19 -200 -31 -182 -42 -261 -59 -300 -65 -75 -10 -444 13 -535 35 -47
11 -125 22 -175 25 -176 11 -566 70 -642 96 -32 11 -89 26 -128 34 -89 17
-180 49 -227 82 -21 14 -50 26 -65 27 -67 5 -356 167 -497 279 -28 21 -70 49
-95 62 -25 13 -60 38 -78 57 -53 56 -143 199 -158 252 -8 28 -24 64 -35 81
-11 16 -34 91 -51 165 -17 74 -42 176 -56 225 -14 50 -31 128 -39 175 -16 104
-37 195 -65 286 -12 38 -34 116 -49 174 -15 58 -36 132 -48 165 -11 33 -46
139 -78 235 -86 266 -244 591 -372 765 -44 59 -211 228 -371 375 -63 58 -174
172 -246 255 -155 176 -251 269 -320 309 -28 16 -66 42 -86 58 -20 15 -40 28
-43 28 -4 0 -23 7 -44 16 -122 55 -193 75 -284 81 -38 3 -68 9 -68 13 0 5 19
21 43 34 82 48 107 96 107 200 0 76 -28 142 -66 156 -28 11 -68 7 -151 -17
-29 -8 -57 -12 -63 -8 -5 3 -14 25 -20 48 -24 93 -46 109 -89 64z m4261
-12637 c46 -11 105 -20 131 -20 50 0 106 -23 164 -66 17 -13 40 -24 50 -24 10
0 41 -14 68 -30 33 -20 64 -30 91 -30 50 0 101 -17 108 -35 3 -8 -11 -28 -35
-47 l-39 -33 -6 -113 c-3 -70 -12 -137 -25 -177 -10 -35 -23 -106 -28 -157 -5
-51 -14 -105 -20 -121 -6 -15 -15 -58 -21 -95 -6 -37 -21 -116 -34 -177 -13
-60 -31 -148 -40 -195 -9 -47 -31 -130 -49 -185 -37 -112 -25 -105 -142 -86
-38 6 -125 11 -192 11 -118 0 -123 1 -184 33 -99 53 -98 47 -106 415 l-6 312
30 0 c54 0 105 79 77 119 -13 19 -13 23 7 51 14 19 24 49 27 83 4 49 2 55 -17
60 -27 7 -28 55 -1 157 11 41 20 91 20 111 0 19 7 57 16 83 15 44 15 62 -2
144 -6 32 -6 32 34 32 23 0 78 -9 124 -20z"/>
</g>
</svg>
