<?xml version="1.0" standalone="no"?>
<!DOCTYPE svg PUBLIC "-//W3C//DTD SVG 20010904//EN"
 "http://www.w3.org/TR/2001/REC-SVG-20010904/DTD/svg10.dtd">
<svg version="1.0" xmlns="http://www.w3.org/2000/svg"
 width="1920.000000pt" height="1600.000000pt" viewBox="0 0 1920.000000 1600.000000"
 preserveAspectRatio="xMidYMid meet">
<metadata>
Created by potrace 1.15, written by Peter Selinger 2001-2017
</metadata>
<g transform="translate(0.000000,1600.000000) scale(0.100000,-0.100000)"
fill="#000000" stroke="none">
<path d="M16222 13749 c-24 -4 -65 -20 -90 -35 -104 -60 -137 -74 -177 -74
-108 0 -199 -57 -277 -174 -108 -161 -193 -225 -284 -212 -67 9 -146 44 -297
130 -200 115 -332 153 -503 144 -153 -7 -246 -67 -308 -197 -29 -61 -31 -74
-30 -171 0 -70 7 -137 22 -202 38 -166 34 -175 -79 -227 -171 -77 -577 -145
-1239 -206 -1010 -93 -1967 -36 -3285 196 -770 135 -1371 199 -2620 279 -422
27 -694 52 -1070 100 -326 41 -426 56 -1205 175 -590 90 -859 128 -1095 154
-1016 112 -1655 -7 -2106 -392 -136 -115 -289 -331 -403 -567 -214 -445 -317
-954 -356 -1757 -11 -234 -15 -1023 -6 -1118 17 -165 26 -581 16 -744 -19
-307 -66 -515 -226 -1003 -236 -721 -289 -999 -289 -1518 0 -352 30 -604 110
-927 57 -235 168 -549 251 -716 56 -111 111 -136 159 -73 33 43 50 163 140
1011 138 1291 197 1733 238 1789 33 44 76 -29 106 -181 63 -309 88 -843 101
-2153 l8 -845 30 -135 c72 -322 106 -617 90 -780 -4 -41 -21 -145 -38 -230
-18 -85 -32 -187 -33 -226 -2 -91 16 -119 140 -214 95 -73 133 -113 154 -165
6 -17 15 -93 19 -170 8 -157 20 -199 77 -257 99 -102 301 -146 758 -168 116
-5 233 -12 260 -16 62 -7 131 17 204 70 95 70 115 144 63 227 -16 24 -62 81
-104 126 -75 82 -109 137 -92 152 5 5 88 -5 184 -21 199 -34 459 -44 536 -21
100 31 161 109 149 193 -13 86 -57 152 -233 343 -90 99 -115 142 -235 412
-243 545 -343 897 -377 1329 -16 205 -1 288 57 302 39 10 74 -7 110 -54 52
-68 60 -110 38 -193 -21 -84 -17 -248 9 -319 37 -99 104 -159 165 -145 59 13
115 93 141 203 11 48 14 52 41 52 16 0 32 0 37 0 4 1 10 -23 15 -52 10 -74 61
-175 100 -199 48 -29 99 -25 136 10 72 67 114 232 93 364 -6 39 -15 82 -18 94
-10 36 34 39 196 14 80 -13 176 -27 214 -31 62 -7 72 -12 109 -48 l40 -41 2
-118 c2 -130 21 -205 70 -269 39 -51 79 -69 126 -55 85 26 140 147 144 315 1
90 3 101 25 118 46 37 52 25 54 -117 2 -108 6 -140 24 -186 26 -66 79 -125
121 -134 63 -14 130 44 167 145 20 55 30 229 16 287 -9 39 -7 46 18 82 41 56
113 87 268 116 160 30 194 38 447 115 475 144 599 145 1179 16 366 -83 621
-119 926 -132 241 -10 457 9 960 86 445 67 591 83 780 84 187 1 268 -12 337
-55 33 -21 33 -21 33 -98 0 -107 -23 -328 -70 -669 -21 -158 -46 -352 -55
-431 -19 -180 -37 -269 -80 -398 -54 -162 -127 -314 -215 -449 -93 -142 -120
-203 -120 -273 0 -62 23 -92 100 -131 107 -54 122 -97 95 -265 -21 -133 -17
-219 12 -261 50 -69 239 -147 433 -179 140 -23 401 -23 528 -1 107 19 109 19
197 86 94 71 130 67 184 -19 40 -65 62 -79 189 -113 115 -32 157 -53 196 -99
42 -50 51 -98 39 -200 -14 -109 -6 -145 46 -192 53 -48 129 -74 300 -102 380
-63 589 -56 734 23 92 50 123 119 93 210 -22 66 -77 142 -216 302 -141 163
-152 178 -199 293 -42 103 -85 173 -214 350 -165 225 -213 361 -203 567 7 159
33 300 115 620 83 329 93 381 126 665 40 341 81 528 142 650 37 75 56 90 156
125 294 103 572 286 739 487 207 248 291 467 403 1048 100 519 135 615 408
1115 59 108 134 259 168 335 111 255 200 368 582 740 281 274 367 345 480 399
178 86 333 104 692 81 435 -27 518 -42 695 -124 58 -27 166 -68 240 -91 74
-23 178 -62 230 -86 374 -170 782 -141 995 71 218 217 305 812 157 1067 -15
26 -78 122 -140 215 -169 249 -261 453 -292 645 -21 127 -8 311 29 441 69 241
189 512 322 732 103 172 163 249 315 406 283 293 360 433 310 563 -48 124
-257 229 -457 228 -115 0 -220 -36 -434 -147 -178 -92 -213 -101 -259 -64 -38
30 -51 60 -86 199 -17 67 -39 139 -50 159 -22 44 -71 91 -170 164 -143 105
-199 122 -445 136 -119 7 -203 18 -280 36 -229 54 -308 63 -403 44z m-5156
-9566 c33 -50 143 -313 155 -373 6 -30 14 -210 19 -400 5 -190 14 -410 20
-490 18 -213 8 -547 -20 -675 -12 -55 -28 -110 -36 -122 -78 -120 -515 242
-665 550 -59 122 -66 167 -40 261 28 100 68 197 176 420 91 187 110 234 195
461 29 77 69 174 90 215 21 41 41 97 44 123 9 78 24 85 62 30z"/>
</g>
</svg>
