<?xml version="1.0" standalone="no"?>
<!DOCTYPE svg PUBLIC "-//W3C//DTD SVG 20010904//EN"
 "http://www.w3.org/TR/2001/REC-SVG-20010904/DTD/svg10.dtd">
<svg version="1.0" xmlns="http://www.w3.org/2000/svg"
 width="1920.000000pt" height="1920.000000pt" viewBox="0 0 1920.000000 1920.000000"
 preserveAspectRatio="xMidYMid meet">
<metadata>
Created by potrace 1.15, written by Peter Selinger 2001-2017
</metadata>
<g transform="translate(0.000000,1920.000000) scale(0.100000,-0.100000)"
fill="#000000" stroke="none">
<path d="M12515 17500 c-312 -23 -579 -107 -790 -250 -159 -107 -350 -300
-538 -543 -184 -236 -220 -309 -327 -647 -98 -313 -128 -445 -180 -798 -61
-408 -62 -427 -68 -947 -7 -729 -7 -755 2 -950 9 -167 11 -184 38 -240 19 -40
28 -76 28 -108 0 -31 10 -72 29 -115 46 -107 49 -123 33 -155 -15 -30 -13 -53
13 -147 8 -30 15 -72 15 -93 0 -25 18 -78 54 -155 74 -161 92 -214 117 -339
12 -63 35 -139 55 -182 19 -41 32 -82 29 -90 -3 -9 -29 -41 -58 -72 -78 -81
-93 -153 -45 -221 27 -39 23 -87 -13 -141 -42 -63 -141 -153 -185 -167 -61
-20 -154 -5 -394 65 -303 87 -419 112 -585 125 -179 14 -596 -2 -975 -35 -151
-14 -347 -29 -435 -34 -165 -10 -215 -21 -308 -68 -80 -40 -262 -103 -329
-114 -48 -7 -79 -20 -128 -53 -36 -24 -88 -51 -117 -61 -28 -9 -89 -39 -135
-67 -102 -62 -160 -87 -319 -134 -155 -45 -249 -89 -319 -148 -30 -26 -122
-81 -205 -123 -82 -42 -188 -101 -234 -130 -82 -53 -211 -123 -226 -123 -4 0
-25 -16 -46 -35 -21 -19 -62 -46 -91 -61 -29 -14 -75 -43 -103 -63 -27 -21
-97 -66 -155 -101 -109 -65 -546 -357 -805 -538 -233 -163 -434 -315 -635
-481 -293 -242 -273 -227 -329 -235 -38 -5 -62 -16 -103 -50 -65 -52 -288
-201 -542 -362 -157 -98 -210 -138 -308 -231 -65 -62 -160 -143 -211 -181 -51
-38 -125 -96 -164 -130 -39 -34 -84 -64 -99 -68 -19 -5 -104 -81 -249 -224
-222 -218 -315 -297 -480 -407 -201 -134 -314 -189 -575 -283 -286 -103 -443
-184 -549 -284 -43 -41 -197 -239 -221 -285 -11 -22 -10 -27 8 -41 11 -10 39
-20 61 -24 28 -4 52 -18 76 -42 31 -31 40 -35 68 -29 40 9 76 27 147 75 81 55
159 75 245 62 71 -10 82 -37 95 -226 10 -146 10 -148 66 -284 68 -168 72 -186
48 -214 -36 -39 -140 -103 -337 -205 -180 -94 -207 -105 -280 -115 -77 -11
-85 -15 -130 -57 -63 -59 -79 -91 -78 -160 0 -55 16 -190 27 -223 8 -25 80
-55 165 -68 43 -6 173 -10 295 -9 194 2 232 0 334 -21 98 -19 149 -23 340 -24
l225 -2 205 -62 c285 -86 379 -105 750 -152 350 -44 369 -46 595 -90 222 -42
379 -59 685 -70 334 -12 451 -23 554 -50 58 -14 111 -20 195 -20 236 0 559
-57 991 -175 146 -40 319 -85 385 -100 66 -15 172 -41 235 -57 63 -16 174 -45
245 -63 72 -18 182 -38 245 -44 63 -7 171 -20 240 -31 69 -10 161 -21 205 -25
44 -4 112 -17 151 -29 50 -16 77 -20 94 -14 62 23 143 -19 173 -89 126 -294
173 -436 189 -563 14 -117 33 -225 52 -290 10 -35 16 -93 16 -165 0 -82 5
-132 22 -196 22 -85 22 -89 6 -202 -18 -130 -15 -151 31 -247 17 -36 31 -80
31 -97 0 -38 7 -40 74 -16 l48 18 22 -26 c11 -15 33 -42 48 -61 46 -61 96 -66
378 -42 51 4 78 1 124 -15 84 -30 129 -27 180 9 l42 31 65 -31 c78 -37 109
-37 252 -4 136 31 178 29 367 -20 74 -19 182 -40 240 -46 58 -6 156 -20 218
-30 99 -16 120 -23 180 -61 81 -52 141 -60 271 -35 107 20 198 20 247 0 29
-12 75 -17 181 -18 139 -1 144 -2 177 -28 18 -15 47 -51 64 -81 37 -66 89
-111 160 -137 70 -26 103 -25 172 6 l58 26 98 -32 99 -32 165 6 165 6 90 -41
c73 -33 107 -43 178 -49 82 -7 93 -11 155 -53 71 -47 108 -62 182 -72 25 -3
80 -22 122 -41 42 -20 101 -38 131 -41 50 -5 56 -3 89 26 39 34 65 38 106 17
15 -8 38 -16 52 -17 22 -4 25 -1 21 21 -13 97 -106 154 -293 181 -50 7 -99 21
-123 35 -22 13 -71 35 -108 49 -38 14 -114 50 -170 79 -70 38 -133 62 -202 79
-55 14 -154 46 -219 72 -109 42 -131 47 -245 56 -192 15 -260 26 -367 60 -96
31 -213 83 -264 119 -14 10 -53 25 -88 34 -80 20 -196 68 -254 105 -34 22 -52
43 -70 83 -14 29 -43 72 -66 95 -46 49 -58 86 -43 140 15 54 13 176 -4 242 -8
31 -49 146 -91 256 -160 422 -216 595 -254 794 -24 121 -51 413 -43 454 9 44
52 70 174 106 176 51 683 273 1104 481 784 389 1192 644 1644 1028 470 400
922 855 1150 1159 358 478 625 1179 723 1903 30 220 33 722 5 920 -55 393
-145 674 -347 1085 -170 346 -594 1059 -989 1660 -130 198 -268 409 -306 470
-39 60 -104 146 -146 190 -90 94 -94 102 -104 178 -3 32 -20 97 -36 144 -26
78 -29 100 -29 213 0 84 -9 184 -26 301 -31 210 -29 313 7 386 31 60 60 81
141 99 43 10 99 35 160 71 192 114 249 132 479 158 77 8 180 24 230 35 49 11
107 20 129 20 23 0 131 -31 262 -76 476 -162 538 -180 918 -264 281 -62 481
-114 651 -169 194 -63 234 -73 498 -126 119 -24 266 -55 326 -69 220 -52 362
-45 432 20 35 34 36 34 31 101 -12 168 -155 319 -367 388 -53 17 -132 67 -286
179 -44 33 -107 71 -140 87 -33 15 -87 43 -119 63 -33 20 -74 38 -92 42 -18 3
-43 17 -55 30 -13 14 -55 35 -101 49 -98 31 -118 41 -248 128 -129 86 -240
170 -343 259 -44 38 -84 68 -89 68 -26 0 -189 121 -268 199 -133 131 -228 292
-389 660 -40 90 -92 203 -116 251 -203 404 -474 704 -754 833 -36 17 -97 52
-136 78 -45 31 -93 54 -134 64 -34 9 -79 27 -100 40 -50 34 -146 65 -197 65
-25 0 -85 15 -141 36 -156 57 -215 72 -356 88 -176 20 -338 25 -472 16z
m-2873 -13797 c9 -8 19 -38 23 -66 11 -81 56 -206 158 -438 133 -301 166 -413
188 -629 11 -116 9 -156 -20 -358 -14 -96 -45 -94 -126 8 -50 62 -59 69 -107
79 -33 8 -70 26 -103 51 -64 49 -113 70 -165 70 -46 0 -72 -20 -94 -74 -18
-42 -34 -51 -110 -61 -33 -4 -112 -27 -177 -51 -64 -24 -155 -50 -201 -58 -45
-8 -100 -22 -120 -30 -48 -20 -107 -21 -114 -1 -3 8 1 36 10 62 9 25 16 63 16
83 0 39 -49 143 -122 255 -54 82 -177 327 -244 481 -88 206 -178 524 -160 569
10 27 106 36 306 29 159 -5 237 -2 425 15 199 19 478 55 625 81 53 9 89 4 112
-17z"/>
</g>
</svg>
