<?xml version="1.0" standalone="no"?>
<!DOCTYPE svg PUBLIC "-//W3C//DTD SVG 20010904//EN"
 "http://www.w3.org/TR/2001/REC-SVG-20010904/DTD/svg10.dtd">
<svg version="1.0" xmlns="http://www.w3.org/2000/svg"
 width="1920.000000pt" height="1920.000000pt" viewBox="0 0 1920.000000 1920.000000"
 preserveAspectRatio="xMidYMid meet">
<metadata>
Created by potrace 1.15, written by Peter Selinger 2001-2017
</metadata>
<g transform="translate(0.000000,1920.000000) scale(0.100000,-0.100000)"
fill="#000000" stroke="none">
<path d="M13355 17690 c-122 -22 -243 -58 -354 -104 -115 -48 -131 -60 -131
-97 0 -85 197 -170 544 -235 410 -76 446 -90 581 -232 46 -49 48 -62 12 -62
-41 0 -125 -48 -180 -103 -132 -132 -233 -385 -288 -722 -19 -117 -20 -148
-13 -310 19 -393 0 -487 -172 -836 -46 -94 -109 -230 -140 -303 -203 -479
-492 -780 -829 -866 -209 -53 -405 -49 -808 19 -127 22 -252 42 -277 45 -267
34 -539 53 -850 60 l-195 4 -120 45 c-177 67 -310 125 -600 264 -463 223 -639
296 -918 384 -189 59 -234 71 -382 99 -211 40 -375 97 -570 198 -106 55 -111
59 -141 115 -30 57 -54 89 -54 71 1 -5 5 -28 9 -51 5 -23 5 -41 2 -39 -83 44
-245 109 -356 143 -47 14 -61 23 -63 40 -2 15 -26 36 -69 64 -37 23 -89 62
-117 88 l-50 46 37 -67 38 -67 -33 13 c-19 8 -87 16 -163 18 -183 7 -225 23
-330 134 -44 46 -83 84 -88 84 -4 0 2 -19 14 -42 33 -65 118 -142 206 -185
l78 -38 -365 -1 c-469 -1 -802 -25 -1507 -108 l-192 -23 -123 -68 c-599 -331
-1124 -708 -1473 -1059 -237 -239 -397 -450 -544 -721 l-71 -129 -132 -99
c-370 -274 -608 -409 -907 -513 -53 -18 -89 -33 -81 -33 61 -2 191 32 439 113
157 51 300 96 316 100 17 4 -20 -20 -82 -53 -104 -54 -408 -249 -401 -256 2
-2 21 1 43 6 164 38 249 65 345 107 l109 50 -32 -38 c-18 -21 -97 -106 -177
-191 -81 -85 -129 -143 -110 -130 68 44 330 161 330 147 0 -1 -22 -40 -50 -85
-58 -98 -108 -222 -185 -466 -32 -99 -60 -187 -62 -195 -3 -8 27 41 67 110 71
123 205 333 269 420 l33 45 -6 -55 c-4 -30 -13 -104 -21 -165 -41 -320 -50
-446 -50 -690 0 -316 20 -523 124 -1294 l20 -144 -23 -61 c-97 -257 -258 -471
-640 -851 -116 -115 -197 -198 -181 -183 17 14 140 123 275 243 376 334 489
443 540 523 25 39 48 71 52 71 13 2 23 -222 23 -509 -1 -322 -10 -413 -65
-625 -27 -106 -42 -146 -144 -389 -152 -359 -240 -820 -268 -1403 -12 -262 -1
-601 27 -818 13 -100 31 -185 39 -185 2 0 1 127 -2 283 -3 201 -1 313 8 387
l14 105 13 -50 c18 -63 44 -124 56 -132 6 -4 8 0 4 10 -18 48 -27 181 -18 277
8 88 14 109 43 157 40 66 119 143 148 143 18 0 20 -6 20 -52 0 -29 -7 -66 -16
-83 l-15 -30 34 33 34 33 11 -58 c20 -98 31 -240 33 -414 2 -160 2 -167 -21
-199 -19 -27 -20 -32 -7 -27 21 8 22 14 -7 -69 -33 -97 -47 -122 -123 -217
-93 -116 -93 -116 -40 -71 48 43 135 136 174 189 l22 30 1 -260 c0 -440 45
-732 257 -1687 l97 -438 -32 -127 c-18 -71 -32 -148 -32 -173 0 -53 28 -105
65 -122 14 -6 24 -17 21 -24 -16 -41 183 -213 334 -289 132 -67 256 -95 313
-72 51 22 64 71 48 188 -23 179 -13 201 68 158 35 -18 59 -43 101 -106 30 -45
64 -91 75 -103 47 -52 93 -45 163 23 31 31 42 49 42 72 0 36 -108 282 -145
331 -24 32 -25 38 -15 70 22 66 8 113 -84 282 -47 87 -95 185 -106 218 -10 32
-66 244 -124 469 -177 689 -181 712 -181 1010 0 244 11 332 71 579 44 178 129
457 155 509 31 61 90 119 264 260 268 219 281 234 412 497 221 444 417 730
475 694 18 -11 3 -196 -36 -449 -60 -388 -59 -454 9 -840 19 -105 39 -249 45
-320 19 -223 51 -409 147 -845 88 -404 110 -562 98 -715 -7 -101 -35 -239 -66
-333 -20 -61 -20 -66 -5 -135 24 -107 88 -307 96 -302 4 3 29 68 55 144 70
205 99 242 131 164 12 -28 18 -102 24 -317 9 -284 15 -334 50 -417 16 -39 18
-61 14 -145 -7 -121 6 -172 51 -193 22 -11 84 -14 270 -15 229 -1 245 -2 355
-30 63 -16 132 -37 153 -48 82 -41 117 2 117 140 0 79 17 142 39 142 4 0 18
-12 32 -26 32 -34 71 -54 107 -54 53 0 68 47 51 160 -6 41 -12 100 -14 130 -7
120 -67 237 -221 435 -58 75 -121 160 -139 190 -41 68 -208 569 -264 790 -42
169 -72 332 -92 505 -16 136 -16 512 0 665 29 282 107 725 151 856 53 158 128
200 290 164 100 -22 390 -68 690 -110 784 -109 1015 -101 2023 66 202 34 370
59 373 56 7 -7 37 -240 60 -472 26 -256 27 -902 1 -1090 -35 -260 -98 -481
-182 -644 -24 -47 -42 -88 -39 -93 9 -14 193 -9 257 8 210 54 367 215 447 458
28 85 25 88 121 -109 194 -398 301 -929 286 -1425 -10 -335 -50 -528 -161
-765 -48 -103 -51 -115 -51 -190 0 -78 2 -84 62 -210 34 -71 69 -159 78 -195
21 -92 19 -264 -5 -395 -10 -60 -18 -110 -16 -112 1 -1 31 13 67 31 35 19 79
37 96 41 l33 7 -6 -104 c-8 -129 2 -163 67 -227 135 -133 417 -211 539 -148
57 28 81 70 88 153 2 36 8 63 11 61 3 -1 33 -16 66 -32 66 -33 60 -33 372 -24
150 4 164 6 184 26 29 28 20 74 -26 144 -19 28 -35 52 -35 54 0 1 41 6 90 9
96 8 103 13 79 58 -13 24 -38 123 -39 151 0 25 27 22 111 -14 78 -33 182 -48
340 -49 133 0 176 8 181 35 11 57 -69 255 -119 295 -21 16 -76 151 -284 698
-143 372 -259 683 -259 690 0 35 263 1102 282 1142 11 25 24 79 29 120 15 143
31 187 112 305 346 508 797 1544 1257 2890 45 131 147 401 227 600 180 450
263 697 347 1036 36 146 77 297 92 335 69 184 197 400 416 697 295 401 351
520 483 1027 96 366 137 468 240 595 31 39 81 120 111 180 41 83 52 100 47 70
-14 -72 -8 -275 11 -365 31 -151 105 -352 190 -522 74 -148 278 -519 283 -514
1 1 -22 58 -51 126 -63 148 -109 277 -103 293 2 7 24 -17 50 -53 25 -36 70
-99 100 -141 30 -42 132 -192 227 -333 96 -141 176 -254 178 -251 2 2 -7 23
-21 47 -46 78 -185 362 -201 411 -9 26 -16 57 -16 68 0 61 70 -38 175 -248 41
-81 74 -146 75 -143 0 3 -27 86 -60 185 -83 249 -78 250 25 1 75 -183 104
-240 105 -209 0 42 -60 250 -141 488 -76 220 -83 248 -87 333 l-3 92 66 170
c60 151 69 169 85 160 29 -15 40 -65 40 -176 0 -346 91 -649 314 -1043 57
-101 98 -195 151 -351 44 -127 121 -307 129 -299 3 2 -2 36 -9 74 -8 39 -24
122 -36 185 -37 197 -83 327 -200 564 l-50 101 46 -50 c26 -27 75 -93 110
-145 35 -52 80 -111 102 -131 43 -40 92 -73 99 -66 3 3 -36 56 -86 118 -237
294 -372 548 -372 697 0 54 17 121 28 110 3 -3 20 -64 39 -134 61 -236 132
-404 221 -531 24 -34 99 -110 166 -169 68 -59 136 -119 152 -133 l30 -26 -30
36 c-16 20 -64 76 -108 125 -161 182 -273 351 -319 479 -73 205 -104 464 -74
622 23 122 80 249 152 339 l22 27 81 -16 c50 -10 131 -17 203 -17 333 0 528
87 599 267 138 350 178 531 166 737 -4 61 -6 128 -6 148 0 20 -5 40 -12 45 -7
4 -24 35 -37 68 -41 105 -111 224 -259 445 -151 224 -230 371 -258 479 -15 58
-15 71 0 157 8 51 41 173 73 271 31 98 67 217 79 265 13 49 28 97 34 108 24
44 103 88 337 185 61 25 152 73 201 105 150 99 223 196 382 510 60 120 110
223 110 229 0 28 -363 -20 -635 -85 -306 -72 -361 -84 -396 -84 -19 0 -112
-13 -206 -29 -228 -39 -315 -46 -389 -31 -84 17 -132 45 -272 154 -68 53 -133
98 -145 101 -12 2 -31 6 -41 7 -14 2 -32 36 -72 138 -126 319 -252 528 -414
690 -115 115 -180 158 -292 196 -214 73 -428 26 -714 -156 -20 -12 -31 -7
-125 53 -122 77 -211 120 -294 142 -90 23 -553 20 -690 -5z m1377 -319 c107
-28 173 -64 243 -135 53 -52 75 -89 162 -261 56 -110 118 -225 137 -255 19
-30 33 -56 31 -58 -2 -2 -23 0 -48 3 -45 7 -47 9 -178 182 -192 253 -302 373
-477 516 l-34 27 45 0 c24 0 78 -9 119 -19z"/>
</g>
</svg>
