<?xml version="1.0" standalone="no"?>
<!DOCTYPE svg PUBLIC "-//W3C//DTD SVG 20010904//EN"
 "http://www.w3.org/TR/2001/REC-SVG-20010904/DTD/svg10.dtd">
<svg version="1.0" xmlns="http://www.w3.org/2000/svg"
 width="1920.000000pt" height="1535.000000pt" viewBox="0 0 1920.000000 1535.000000"
 preserveAspectRatio="xMidYMid meet">
<metadata>
Created by potrace 1.15, written by Peter Selinger 2001-2017
</metadata>
<g transform="translate(0.000000,1535.000000) scale(0.100000,-0.100000)"
fill="#000000" stroke="none">
<path d="M16365 14715 c-20 -21 -45 -67 -64 -120 -43 -120 -57 -144 -133 -223
l-66 -70 -64 26 c-54 22 -78 26 -168 27 -97 0 -109 -2 -165 -30 -37 -19 -68
-42 -80 -62 -11 -18 -23 -32 -26 -33 -10 0 -38 74 -54 144 -20 83 -18 180 4
245 l19 53 -35 15 c-49 20 -94 3 -161 -61 -122 -114 -229 -317 -271 -511 l-18
-80 -39 0 c-21 0 -61 -8 -89 -17 -27 -9 -98 -23 -156 -32 -197 -28 -278 -77
-624 -380 -78 -69 -117 -96 -135 -96 -47 0 -114 -29 -166 -73 -164 -135 -215
-182 -243 -226 -26 -40 -42 -53 -89 -72 -31 -12 -64 -28 -72 -34 -8 -7 -46
-19 -85 -28 -160 -38 -283 -128 -446 -328 -71 -86 -86 -99 -137 -118 -90 -34
-181 -108 -285 -233 -85 -102 -100 -115 -148 -132 -36 -12 -73 -37 -114 -75
-45 -43 -72 -60 -110 -70 -89 -22 -174 -90 -244 -193 -22 -33 -49 -56 -90 -78
-33 -18 -83 -52 -111 -76 -28 -24 -60 -44 -70 -44 -40 0 -256 -61 -318 -90
-49 -23 -82 -49 -136 -106 -41 -45 -113 -105 -171 -145 -127 -86 -137 -95
-233 -207 -103 -120 -151 -156 -260 -197 -55 -20 -127 -58 -188 -100 -251
-169 -563 -282 -929 -334 -639 -92 -1429 -23 -2420 210 -93 22 -237 56 -320
74 -178 41 -199 48 -239 79 -40 29 -77 41 -206 65 -58 11 -175 36 -260 55
-319 73 -558 102 -765 93 -166 -7 -235 -26 -477 -126 -248 -102 -404 -164
-658 -262 -205 -80 -365 -158 -537 -262 -88 -54 -150 -77 -238 -92 -61 -10
-225 -87 -225 -106 0 -10 -20 -21 -57 -33 -77 -24 -307 -147 -292 -157 7 -4
-5 -16 -33 -33 -57 -33 -109 -86 -84 -86 28 0 10 -17 -66 -61 -72 -42 -158
-113 -158 -131 0 -5 18 6 40 23 22 18 43 29 46 26 9 -9 -40 -72 -77 -99 -32
-24 -85 -95 -77 -104 3 -2 22 18 42 46 20 27 40 50 46 50 16 0 12 -9 -24 -53
-43 -53 -109 -157 -103 -163 2 -2 21 21 41 52 47 71 59 63 16 -10 -17 -31 -28
-60 -25 -66 8 -13 -34 -116 -126 -311 -38 -81 -69 -155 -69 -166 0 -11 -13
-37 -30 -58 -16 -21 -30 -42 -30 -47 0 -5 -12 -21 -27 -35 -16 -15 -22 -23
-15 -19 8 5 31 9 52 10 36 2 38 1 27 -18 -6 -12 -10 -28 -9 -36 4 -24 -66 -99
-132 -142 -39 -25 -52 -38 -39 -38 11 0 37 11 57 25 48 33 47 13 -4 -55 -22
-29 -40 -56 -40 -59 0 -14 65 61 101 116 23 35 43 63 45 63 8 0 -29 -66 -71
-125 -60 -84 -83 -134 -93 -199 -9 -56 0 -78 12 -30 4 15 9 24 12 22 6 -7 -29
-106 -61 -168 -15 -30 -56 -99 -91 -153 -67 -103 -98 -157 -89 -157 2 0 36 46
73 103 38 56 80 111 92 122 l22 20 -7 -35 c-11 -53 -51 -127 -110 -205 -50
-65 -75 -111 -75 -136 0 -6 4 -8 9 -5 5 4 7 -4 4 -16 -5 -23 -4 -22 16 2 11
14 44 69 72 123 29 54 54 95 57 93 11 -11 -23 -109 -80 -229 -33 -70 -58 -130
-55 -134 3 -3 13 10 21 28 l15 34 -5 -40 c-4 -27 1 -60 15 -100 27 -76 26 -95
-4 -155 -25 -50 -33 -86 -16 -76 5 4 12 -29 16 -71 3 -43 15 -105 26 -138 31
-92 32 -111 10 -239 -23 -128 -27 -221 -11 -231 6 -4 10 19 10 62 0 86 14 112
29 57 14 -51 14 -64 -5 -174 -19 -110 -37 -163 -29 -85 4 40 2 46 -7 31 -7
-13 -12 -107 -13 -275 -1 -141 2 -247 6 -236 13 34 11 -24 -7 -158 -15 -114
-14 -128 2 -215 17 -89 17 -94 -2 -155 -15 -50 -19 -90 -18 -207 1 -80 6 -163
12 -185 l10 -40 2 40 c2 34 5 27 26 -55 34 -137 39 -226 24 -435 -11 -154 -11
-198 0 -272 13 -84 13 -93 -13 -218 -26 -126 -38 -262 -16 -190 4 16 16 80 25
142 10 62 20 110 23 107 3 -3 6 -63 7 -132 0 -70 4 -165 8 -212 8 -85 8 -85
-43 -236 -43 -129 -51 -162 -51 -226 0 -71 -2 -78 -35 -122 -42 -55 -34 -62
11 -9 21 24 36 34 47 30 22 -8 37 -69 37 -150 0 -83 63 -285 89 -283 8 1 21
-11 30 -25 14 -26 13 -30 -27 -91 -23 -35 -42 -68 -42 -73 0 -16 48 37 60 66
13 31 20 35 37 18 7 -7 12 4 15 38 4 35 18 70 54 127 l48 78 14 -41 c16 -48
35 -56 21 -9 -5 18 -9 44 -9 58 1 23 2 22 16 -9 20 -47 24 -37 11 31 -7 38 -7
71 0 100 l10 43 17 -38 c9 -20 23 -69 31 -108 16 -74 60 -185 50 -124 -3 17
-8 66 -10 110 -4 61 -3 74 5 56 6 -13 8 -40 4 -60 -7 -38 10 -34 18 4 3 15 14
2 41 -50 45 -86 39 -43 -11 69 -32 74 -52 156 -39 156 4 0 14 -26 24 -57 15
-50 18 -54 21 -29 2 15 -6 50 -17 76 -24 55 -28 114 -8 108 23 -8 47 -72 47
-128 0 -84 12 -164 21 -148 5 7 6 36 2 65 -7 66 1 91 23 72 9 -8 32 -36 50
-64 19 -27 34 -45 34 -40 0 6 -6 19 -14 30 -7 11 -27 52 -43 90 l-30 71 23 68
c36 106 34 103 44 86 5 -8 7 -40 3 -71 -6 -63 6 -110 40 -152 l22 -28 -3 83
c-2 46 1 94 7 108 7 19 10 20 10 7 1 -10 6 -15 12 -12 7 5 8 25 4 55 -4 27 -2
57 3 66 17 30 42 -76 49 -206 4 -69 9 -106 14 -95 13 35 10 156 -8 281 -14
103 -15 129 -4 178 7 32 16 54 20 50 8 -9 46 -201 59 -294 7 -52 9 -54 21 -32
7 13 17 69 22 125 6 56 16 123 24 149 12 40 11 57 -2 120 -12 59 -14 111 -9
268 7 188 22 344 25 259 0 -20 7 -54 14 -75 22 -65 15 -593 -11 -844 -14 -138
-22 -302 -25 -500 -5 -280 -6 -300 -32 -395 -20 -76 -25 -113 -20 -156 5 -50
2 -62 -26 -115 -32 -60 -41 -106 -56 -296 -5 -75 -4 -79 31 -143 20 -36 36
-75 36 -86 0 -11 4 -18 8 -15 5 3 25 -4 45 -14 22 -12 56 -20 86 -20 45 0 51
-3 95 -50 53 -56 85 -120 86 -166 0 -50 -38 -185 -70 -247 -44 -85 -41 -126
14 -185 24 -26 47 -58 51 -72 14 -47 55 -119 73 -129 10 -5 45 -14 79 -20 33
-7 94 -23 135 -38 65 -23 92 -26 244 -30 261 -8 451 21 470 70 8 23 -47 177
-121 335 -58 125 -66 149 -60 182 10 57 -15 99 -112 187 -73 66 -90 88 -125
162 -22 47 -62 120 -88 161 -27 41 -55 95 -63 120 -35 105 -67 425 -67 675 0
127 16 303 50 544 12 80 30 232 40 336 24 229 37 285 96 394 87 161 154 369
154 481 0 86 17 171 45 220 44 80 93 186 166 362 82 201 207 464 215 455 3 -3
-2 -19 -11 -37 -9 -17 -14 -37 -12 -43 6 -17 75 124 142 289 83 203 124 285
210 419 125 195 147 226 159 222 31 -10 32 -328 2 -467 -46 -208 -167 -480
-327 -730 -173 -271 -213 -370 -213 -520 0 -104 18 -144 124 -270 39 -47 110
-140 158 -208 151 -213 559 -873 873 -1412 l137 -234 -14 -46 c-8 -25 -14 -46
-14 -48 0 -2 8 -2 18 0 13 2 17 -4 16 -32 0 -19 -4 -43 -8 -52 -6 -14 -3 -18
14 -18 20 0 21 -4 15 -39 -5 -31 -3 -40 11 -45 14 -5 16 -16 11 -72 -5 -65 -5
-65 16 -47 20 18 20 18 13 -12 -4 -16 -9 -38 -12 -47 -3 -10 -1 -18 5 -18 6 0
11 -9 11 -20 0 -11 11 -44 24 -75 21 -45 29 -55 50 -55 13 0 31 -3 40 -6 10
-4 21 7 35 35 34 66 101 67 86 1 -15 -60 -17 -93 -7 -86 6 3 13 20 17 36 9 43
25 37 25 -8 0 -32 5 -41 25 -50 14 -7 32 -12 40 -12 8 0 15 -9 15 -20 0 -11 7
-23 15 -26 8 -4 15 -12 15 -19 0 -7 5 -15 12 -17 20 -7 -17 -89 -72 -157 -28
-35 -52 -76 -56 -97 -18 -99 39 -260 121 -339 105 -101 203 -134 463 -157 154
-13 284 -4 395 28 l57 17 0 73 c0 91 -27 166 -106 299 l-57 95 17 43 c24 63
21 83 -26 184 -39 83 -46 92 -73 95 -38 4 -77 66 -131 206 -20 54 -50 122 -66
153 -27 53 -29 60 -20 110 13 68 1 134 -36 208 -16 31 -111 182 -212 336 -427
653 -566 893 -675 1167 -40 100 -85 203 -99 228 -41 71 -36 110 30 236 56 106
56 107 52 178 -4 62 -1 78 22 126 15 30 35 89 45 130 13 52 51 140 125 285 62
122 119 247 134 299 25 81 33 95 95 160 53 56 70 82 80 121 35 137 55 188 106
275 31 52 77 132 101 177 25 44 69 112 99 150 36 45 65 95 85 148 17 44 64
140 104 212 l73 133 79 -48 c43 -27 111 -69 149 -93 39 -25 100 -61 136 -81
37 -20 95 -58 130 -84 80 -59 103 -68 253 -105 82 -21 161 -49 246 -89 81 -38
159 -67 220 -81 52 -12 115 -32 140 -44 32 -16 99 -31 220 -49 96 -14 209 -33
250 -41 99 -19 327 -19 565 0 105 8 260 17 345 19 119 4 180 11 265 31 61 14
139 33 175 41 36 9 150 19 255 24 105 4 204 12 220 18 17 5 61 22 99 36 90 35
160 49 396 80 107 15 229 33 270 42 81 17 271 36 360 36 30 0 73 -7 95 -15 37
-13 41 -18 52 -68 16 -71 33 -310 33 -479 0 -75 7 -190 15 -255 12 -92 14
-170 9 -335 -5 -161 -3 -259 9 -390 9 -96 18 -265 21 -375 4 -166 2 -207 -11
-240 -32 -84 -30 -103 36 -248 71 -157 81 -200 81 -356 0 -133 -16 -253 -65
-501 -33 -169 -42 -235 -65 -476 -6 -62 -17 -134 -24 -160 -8 -27 -22 -88 -30
-136 -9 -47 -23 -103 -32 -124 -9 -20 -13 -46 -10 -58 3 -12 1 -45 -6 -74 -8
-40 -9 -55 0 -61 8 -5 5 -30 -8 -91 -20 -85 -24 -156 -12 -198 19 -65 227
-268 244 -238 6 11 16 12 36 7 82 -24 152 -80 152 -122 0 -26 -17 -53 -76
-117 -37 -40 -69 -131 -60 -167 4 -15 32 -45 65 -71 45 -35 69 -64 106 -131
27 -48 62 -102 78 -120 l29 -33 98 0 c209 0 529 50 605 95 88 51 95 119 25
236 -24 38 -40 72 -37 75 3 3 41 -13 85 -35 169 -85 278 -102 437 -68 151 32
273 99 267 147 -4 34 -69 160 -141 273 -50 78 -61 104 -56 125 9 41 -12 132
-41 175 -20 30 -44 47 -117 81 -97 45 -124 69 -195 173 -126 186 -214 444
-237 693 -8 84 8 402 31 635 8 83 18 186 21 230 4 49 15 99 29 131 29 66 41
132 60 334 34 376 44 483 59 650 22 243 49 413 100 635 24 105 60 280 79 390
60 337 175 892 200 960 31 86 63 125 149 185 214 149 256 180 324 244 143 133
196 221 263 436 60 190 136 375 181 440 69 99 80 151 129 620 17 162 35 317
41 345 15 75 47 120 166 236 101 97 114 114 168 220 32 63 87 161 123 219 318
516 595 1086 737 1520 27 80 50 148 52 152 2 3 32 -2 67 -12 34 -10 92 -21
127 -25 93 -10 118 -24 190 -104 84 -94 161 -146 420 -284 196 -104 299 -163
299 -170 0 -2 20 -59 45 -126 52 -143 80 -186 143 -214 40 -17 60 -19 151 -14
58 3 125 12 149 21 23 8 80 22 125 31 76 14 85 18 123 60 23 25 48 45 55 45
26 0 162 228 209 352 38 99 72 247 66 282 -9 45 -71 172 -160 324 -101 175
-122 218 -157 330 -17 53 -71 177 -121 275 -117 233 -132 277 -158 442 -11 77
-25 159 -30 182 -18 78 -29 176 -23 203 4 21 10 26 23 23 41 -11 30 122 -27
321 -4 15 -1 18 16 13 25 -6 27 2 6 29 -20 26 -19 44 3 44 14 0 12 4 -8 21
-24 20 -24 21 -2 15 12 -3 32 -9 45 -12 l22 -6 -24 21 c-25 22 -13 28 21 10
44 -23 25 0 -32 41 -34 23 -59 45 -56 47 3 3 25 0 50 -7 66 -18 80 -6 16 15
-67 22 -87 35 -68 46 9 5 4 11 -15 18 -38 15 -35 35 3 27 27 -5 29 -4 21 13
-16 29 -111 110 -166 142 l-50 29 48 0 c26 0 47 5 47 10 0 6 -18 10 -40 10
-22 0 -40 5 -40 11 0 7 12 8 33 4 30 -6 29 -5 -18 25 -74 48 -145 110 -145
127 0 8 -25 40 -55 72 -30 32 -55 61 -55 66 0 4 22 31 49 60 55 58 75 111 87
223 15 161 -49 423 -129 525 -24 30 -75 22 -112 -18z m-13215 -7831 c62 -181
88 -317 98 -515 14 -289 -4 -386 -120 -649 -33 -74 -87 -200 -120 -280 -67
-164 -150 -329 -156 -312 -2 6 13 93 32 194 48 247 56 325 56 513 0 115 -4
172 -15 202 -14 42 -12 73 6 73 5 0 13 -10 18 -22 5 -14 7 15 4 72 -5 106 9
172 29 136 6 -11 17 -42 24 -70 l13 -51 -4 83 c-2 45 -2 82 0 82 3 0 15 -19
27 -42 l22 -43 8 55 c4 30 5 66 2 80 -4 14 -6 129 -5 255 1 170 -3 251 -14
308 -17 90 -19 136 -6 122 5 -6 11 -19 14 -30 3 -12 5 -7 6 15 l2 35 14 -34
c9 -18 38 -98 65 -177z m-102 -169 c0 -88 -3 -185 -7 -215 l-7 -55 -18 40
c-16 35 -17 57 -11 183 7 133 15 164 29 102 3 -14 3 13 1 60 -2 53 0 77 5 65
5 -11 8 -92 8 -180z m-171 -1212 c18 -43 13 -83 -28 -238 l-23 -90 -9 45 c-14
76 12 320 35 320 5 0 16 -17 25 -37z m-897 -2383 c0 -45 -17 -157 -47 -300
l-5 -25 -14 28 c-19 34 -32 133 -17 124 7 -4 12 20 16 66 5 79 45 197 58 175
5 -7 9 -38 9 -68z m10190 -1496 c17 3 44 9 60 12 24 5 30 3 30 -10 0 -9 5 -16
11 -16 5 0 -2 -19 -16 -42 -15 -24 -29 -51 -32 -60 -6 -21 -46 -18 -72 6 -19
18 -35 67 -45 146 l-6 45 20 -44 c19 -40 22 -43 50 -37z"/>
</g>
</svg>
