<?xml version="1.0" standalone="no"?>
<!DOCTYPE svg PUBLIC "-//W3C//DTD SVG 20010904//EN"
 "http://www.w3.org/TR/2001/REC-SVG-20010904/DTD/svg10.dtd">
<svg version="1.0" xmlns="http://www.w3.org/2000/svg"
 width="1920.000000pt" height="1437.000000pt" viewBox="0 0 1920.000000 1437.000000"
 preserveAspectRatio="xMidYMid meet">
<metadata>
Created by potrace 1.15, written by Peter Selinger 2001-2017
</metadata>
<g transform="translate(0.000000,1437.000000) scale(0.100000,-0.100000)"
fill="#000000" stroke="none">
<path d="M5105 10570 c-932 -70 -1589 -322 -2460 -946 -115 -83 -293 -200
-395 -260 -245 -145 -296 -193 -448 -424 -127 -193 -195 -268 -289 -318 -63
-33 -194 -72 -245 -72 -28 0 -28 0 -28 64 0 36 -9 93 -21 131 -17 55 -31 78
-77 125 -47 48 -68 61 -116 75 -192 56 -370 -81 -370 -285 0 -101 16 -144 148
-405 132 -260 153 -329 125 -427 -8 -32 -18 -42 -63 -64 -231 -113 -366 -371
-366 -699 0 -358 163 -670 415 -796 94 -46 111 -44 146 17 67 118 74 282 24
627 -24 168 -26 190 -12 205 46 52 95 192 138 395 12 59 26 102 29 95 10 -19
26 -181 60 -593 55 -672 106 -965 217 -1250 66 -168 107 -232 297 -460 237
-286 286 -399 241 -553 -21 -70 -93 -146 -234 -245 -63 -44 -138 -105 -168
-135 -62 -63 -59 -44 -43 -317 18 -299 55 -482 131 -644 l41 -88 -36 -224
c-43 -267 -63 -444 -72 -635 l-7 -142 28 -18 c21 -14 54 -19 145 -22 l117 -4
6 -57 c3 -31 19 -92 35 -136 17 -44 33 -92 36 -106 5 -24 15 -29 83 -47 116
-31 216 -42 438 -49 238 -7 275 -3 275 32 0 67 -65 178 -194 333 -174 210
-254 340 -293 482 -25 93 -25 354 0 462 29 122 90 262 147 335 l17 22 60 -62
c199 -209 343 -452 437 -737 66 -202 116 -489 116 -670 0 -87 14 -92 99 -38
43 27 91 35 125 22 22 -9 54 -64 72 -126 24 -79 51 -126 83 -142 63 -33 231
-60 376 -60 126 0 145 2 193 23 79 36 102 68 102 147 0 117 -31 162 -180 259
-53 34 -108 77 -123 95 -71 84 -161 313 -204 519 -21 104 -26 154 -27 281 0
290 44 380 359 725 75 83 192 217 259 300 211 261 360 395 479 430 28 8 88 15
133 15 161 0 304 -41 591 -168 220 -98 650 -262 923 -353 430 -142 680 -185
1213 -211 302 -14 643 -3 1259 42 491 35 869 50 1095 43 l163 -6 10 -36 c14
-54 38 -212 51 -341 6 -63 13 -290 15 -503 l3 -388 29 -27 c16 -15 40 -47 55
-72 46 -80 57 -153 67 -450 9 -285 18 -348 61 -432 26 -51 71 -101 112 -122
l34 -19 174 44 c169 42 179 43 334 44 88 0 182 -3 209 -7 l48 -8 -7 57 c-16
132 -74 236 -241 433 -158 187 -207 277 -224 410 -20 151 26 319 160 584 48
94 108 226 134 292 53 137 92 203 139 233 29 18 34 18 66 5 57 -24 95 -58 125
-115 39 -71 45 -189 21 -409 -19 -169 -17 -359 2 -395 6 -11 44 -45 84 -75 44
-33 85 -75 103 -104 27 -42 31 -59 34 -140 3 -64 -2 -125 -17 -206 -12 -63
-21 -136 -21 -161 l0 -48 57 -7 c89 -11 248 3 353 31 238 63 265 68 365 69 55
1 122 -3 148 -7 l48 -8 -83 103 c-221 272 -375 571 -430 833 -18 90 -16 287 6
364 27 99 84 205 158 293 20 23 36 29 103 39 44 6 161 28 261 50 206 44 356
60 462 48 89 -10 101 -13 324 -100 180 -71 297 -102 513 -138 592 -99 1451
-103 2225 -11 304 36 268 27 281 73 20 74 59 150 143 276 46 70 92 144 103
166 31 60 60 163 64 224 l4 55 -180 52 c-369 107 -520 203 -586 372 -18 45
-23 78 -23 157 -1 115 5 130 98 255 62 82 97 150 115 223 15 61 15 229 1 355
-6 53 -10 147 -8 207 l3 110 68 7 c82 8 127 35 178 106 60 84 103 125 155 148
63 28 226 78 449 139 94 25 211 60 260 77 180 62 347 162 416 250 l32 40 -24
19 c-69 53 -240 89 -426 89 l-125 0 -56 51 c-65 58 -245 179 -347 234 -112 59
-270 129 -585 256 -504 204 -703 314 -884 489 -153 148 -391 440 -534 655
-178 268 -301 386 -589 567 -182 115 -724 380 -923 453 -41 15 -231 66 -421
115 -351 90 -429 116 -723 245 -226 99 -376 140 -666 184 -339 51 -677 67
-1535 76 -324 3 -630 10 -680 16 -49 5 -187 27 -306 49 -276 50 -402 60 -773
60 -504 0 -662 15 -1336 120 -691 108 -816 120 -1250 125 -190 2 -399 0 -465
-5z"/>
</g>
</svg>
