<?xml version="1.0" standalone="no"?>
<!DOCTYPE svg PUBLIC "-//W3C//DTD SVG 20010904//EN"
 "http://www.w3.org/TR/2001/REC-SVG-20010904/DTD/svg10.dtd">
<svg version="1.0" xmlns="http://www.w3.org/2000/svg"
 width="1920.000000pt" height="1536.000000pt" viewBox="0 0 1920.000000 1536.000000"
 preserveAspectRatio="xMidYMid meet">
<metadata>
Created by potrace 1.15, written by Peter Selinger 2001-2017
</metadata>
<g transform="translate(0.000000,1536.000000) scale(0.100000,-0.100000)"
fill="#000000" stroke="none">
<path d="M7200 14017 c-108 -53 -141 -79 -301 -239 -207 -205 -260 -279 -384
-523 -158 -312 -193 -440 -296 -1080 -25 -155 -34 -472 -18 -640 6 -60 14
-177 19 -260 15 -233 28 -385 40 -439 13 -63 57 -237 65 -257 7 -19 -13 -30
-125 -64 -110 -34 -471 -169 -575 -215 -92 -40 -310 -125 -400 -155 -60 -20
-171 -58 -245 -85 -142 -51 -281 -94 -340 -104 -103 -18 -299 -181 -433 -359
-46 -61 -109 -146 -140 -187 -103 -138 -258 -324 -341 -410 -96 -100 -230
-277 -309 -407 -55 -90 -185 -263 -296 -393 -71 -82 -180 -239 -215 -307 -41
-82 -56 -163 -56 -310 0 -149 8 -180 72 -275 28 -42 60 -72 116 -110 106 -71
122 -87 122 -125 0 -47 18 -163 42 -274 l21 -95 85 -53 c205 -127 510 -176
836 -136 127 15 146 14 146 -8 0 -20 51 -109 83 -147 81 -94 197 -171 287
-191 19 -5 69 -20 110 -35 73 -27 82 -28 385 -35 171 -5 376 -11 457 -15 l147
-7 117 38 c93 30 119 35 123 24 2 -7 37 -61 78 -119 77 -110 145 -213 201
-302 18 -29 62 -84 98 -123 35 -38 109 -128 164 -200 55 -71 125 -160 157
-197 32 -37 103 -120 157 -185 146 -173 297 -319 401 -387 116 -76 267 -163
327 -187 27 -10 65 -30 85 -43 32 -21 95 -51 248 -116 11 -5 58 -26 105 -48
94 -44 209 -92 222 -92 4 0 51 -21 104 -46 86 -41 108 -57 225 -172 138 -134
156 -148 231 -188 61 -31 246 -97 318 -113 115 -26 194 -61 440 -195 58 -32
141 -70 185 -85 145 -51 158 -65 252 -280 30 -68 47 -124 50 -162 l6 -59 -44
-1 c-197 -6 -234 -15 -354 -79 -67 -36 -107 -61 -210 -130 -12 -8 -49 -40 -83
-71 -52 -49 -63 -66 -81 -124 -29 -93 -26 -170 10 -327 17 -73 33 -143 36
-155 3 -12 -2 -43 -11 -70 -39 -119 -58 -215 -63 -322 l-6 -113 43 -89 44 -88
65 -20 c215 -65 397 -100 596 -115 110 -9 218 -18 240 -21 22 -3 94 -9 160
-15 128 -11 321 -30 550 -56 77 -9 187 -27 245 -41 58 -13 125 -28 150 -33
260 -51 249 -50 500 -50 324 -1 646 -15 800 -35 69 -9 263 -20 435 -25 273 -8
458 -24 523 -44 43 -14 367 -38 602 -45 224 -7 249 -10 295 -30 144 -66 250
-91 412 -98 140 -6 318 8 518 42 110 19 194 25 395 30 256 6 426 23 517 50 26
8 51 15 54 15 4 0 9 -19 12 -41 9 -68 24 -75 93 -46 32 14 70 28 84 32 14 4
68 26 120 48 148 63 248 118 395 218 89 61 118 74 265 122 274 90 343 110 398
118 39 5 100 33 225 100 95 50 188 103 208 116 37 24 79 82 188 256 34 54 86
129 116 167 88 110 126 183 167 320 58 195 63 374 18 580 -16 74 -43 212 -59
305 -34 191 -34 193 18 386 21 79 31 139 31 188 0 102 -18 254 -41 340 -10 41
-19 82 -19 90 0 8 -11 51 -24 95 -13 45 -32 126 -41 181 -9 55 -21 116 -26
135 -5 19 -9 99 -9 177 0 226 -38 466 -125 803 -26 96 -50 207 -55 245 -5 39
-27 127 -50 195 -23 69 -64 199 -91 290 -27 91 -60 190 -73 220 -14 30 -43
114 -66 185 -52 165 -90 260 -170 430 -21 44 -57 129 -79 190 -58 153 -230
446 -326 554 -16 19 -61 66 -99 105 -67 69 -129 149 -216 276 -24 36 -58 81
-77 100 -18 19 -33 38 -33 42 0 4 -53 52 -118 107 -64 54 -166 150 -227 213
-109 112 -260 234 -342 276 -66 33 -110 64 -212 145 -52 42 -121 90 -153 109
-122 69 -233 149 -326 236 -19 18 -218 134 -272 159 -25 12 -99 47 -165 78
-148 70 -260 112 -345 130 -36 8 -85 21 -109 30 -50 17 -445 126 -531 146 -41
9 -140 11 -400 6 -357 -6 -548 -17 -755 -43 -66 -8 -160 -20 -210 -25 -49 -6
-135 -22 -190 -36 -104 -26 -182 -35 -495 -53 -246 -14 -511 -74 -747 -169
l-102 -42 -53 17 c-88 27 -131 44 -168 68 -96 61 -122 66 -347 66 -114 0 -248
-5 -298 -10 -149 -17 -506 -107 -626 -157 l-106 -45 -102 52 -102 51 -102 -32
c-56 -17 -144 -51 -196 -76 -81 -38 -481 -179 -485 -171 -1 2 -14 44 -30 93
-38 115 -44 129 -59 117 -24 -18 -227 -96 -233 -89 -4 4 -7 93 -6 198 l2 191
34 85 c31 75 45 95 121 171 101 100 264 293 295 347 11 20 43 69 69 109 26 39
73 114 103 166 30 52 76 125 101 161 43 61 152 258 234 420 33 67 75 182 140
384 19 61 45 139 58 175 28 78 78 272 101 390 23 113 26 610 6 710 -8 36 -16
79 -19 95 -2 17 -13 53 -23 80 -10 28 -26 77 -35 110 -41 143 -94 265 -146
338 l-54 75 -65 7 c-36 4 -128 5 -205 4 l-140 -3 -171 -58 c-150 -50 -456
-177 -653 -269 -35 -16 -67 -26 -71 -22 -4 4 -27 33 -52 63 -162 202 -220 271
-318 373 -94 97 -126 124 -208 170 -92 52 -255 128 -270 126 -4 0 -36 -15 -72
-32z m2303 -637 c82 -249 89 -290 84 -503 -7 -355 -29 -477 -146 -817 -27 -79
-49 -147 -49 -150 4 -19 -22 -104 -68 -223 -30 -76 -54 -143 -54 -149 0 -6 -7
-19 -15 -28 -9 -10 -26 -37 -38 -61 -23 -46 -44 -63 -222 -183 -207 -139 -284
-229 -389 -456 -50 -108 -90 -165 -171 -250 -36 -37 -76 -80 -88 -97 -86 -116
-290 -303 -331 -303 -3 0 -66 -32 -138 -72 -156 -84 -228 -114 -228 -92 0 8
13 22 28 32 16 9 74 55 129 100 121 101 216 224 301 391 43 85 78 129 258 320
121 129 132 145 148 201 10 34 15 64 13 66 -3 3 -33 -27 -68 -66 -35 -40 -116
-124 -179 -189 -147 -149 -179 -189 -225 -281 -37 -73 -115 -195 -176 -275
-31 -41 -79 -83 -209 -182 -41 -32 -78 -62 -82 -68 -16 -22 -18 6 -3 41 33 78
47 181 56 399 13 313 27 963 28 1281 1 198 5 292 16 345 8 41 19 128 25 194 6
84 18 147 39 210 39 122 119 285 181 370 28 39 59 83 69 99 11 15 30 36 44 45
13 9 51 33 83 55 33 21 110 75 172 119 l114 80 102 -7 102 -6 225 73 c123 41
271 84 329 96 58 12 141 30 185 40 44 10 87 18 95 17 10 -1 28 -41 53 -116z
m-1884 -1217 c-7 -24 -14 -169 -19 -398 -4 -198 -13 -592 -19 -875 -11 -557
-14 -619 -34 -695 -13 -48 -14 -40 -21 160 -4 124 -13 231 -21 260 -45 164
-61 253 -75 426 -6 69 -15 152 -20 185 -6 32 -10 85 -10 116 0 31 -4 60 -10
63 -6 3 -10 51 -10 108 0 113 -11 75 133 442 95 242 108 273 114 258 2 -6 -1
-29 -8 -50z m-715 -1149 c-13 -53 -18 -145 -24 -399 -6 -235 -13 -356 -24
-420 -9 -49 -21 -115 -26 -145 -17 -95 -19 -103 -46 -197 -17 -59 -32 -93 -41
-93 -33 0 -260 95 -346 145 -70 42 -119 62 -191 80 l-97 24 -104 -36 -103 -36
-31 -79 c-17 -44 -31 -83 -31 -87 0 -5 39 -31 87 -57 106 -60 170 -120 203
-193 31 -69 114 -222 149 -276 32 -49 36 -127 20 -325 -10 -119 -41 -260 -57
-260 -3 0 -2 60 2 133 l7 132 -36 100 c-40 111 -49 125 -77 125 -28 0 -31 -23
-8 -68 12 -22 30 -78 41 -124 17 -68 19 -100 14 -183 -4 -59 -13 -108 -21
-119 -8 -11 -14 -28 -14 -36 0 -17 -107 -115 -170 -156 -64 -42 -392 -145
-526 -165 -118 -17 -374 -94 -463 -138 -20 -10 -49 -21 -64 -25 -15 -4 -65
-24 -110 -45 l-82 -38 -62 -114 c-34 -63 -76 -154 -93 -204 -30 -86 -31 -95
-25 -190 4 -55 13 -134 21 -175 8 -41 14 -133 14 -203 l0 -128 -34 -14 c-19
-8 -41 -24 -49 -36 -12 -16 -19 -19 -33 -11 -11 6 -27 7 -41 1 -20 -7 -28 -2
-62 45 -22 30 -59 93 -83 140 l-43 86 44 40 43 40 -7 95 c-7 92 4 178 26 215
5 8 18 33 28 56 17 36 28 45 114 84 68 31 97 50 101 65 2 11 4 59 2 107 -2 86
-3 89 -45 150 -134 193 -185 275 -218 350 -29 66 -141 255 -172 290 -6 7 -50
2 -165 -18 -34 -6 -79 -40 -154 -117 -53 -54 -54 -56 -87 -188 -18 -74 -43
-156 -54 -183 -33 -76 -36 -120 -12 -216 12 -47 26 -94 31 -105 14 -29 80
-177 80 -179 0 0 -17 -1 -37 -1 -34 0 -38 -3 -41 -27 -3 -22 2 -28 35 -38 21
-7 56 -25 78 -40 22 -15 54 -34 70 -43 36 -19 79 -59 166 -158 55 -62 72 -90
104 -174 21 -55 55 -134 76 -177 38 -76 46 -84 153 -154 l40 -26 95 29 c93 28
96 30 96 59 1 16 7 44 14 62 17 40 10 244 -13 377 -22 128 -20 218 4 285 73
198 125 278 210 324 61 33 487 186 519 186 44 0 310 56 353 74 15 7 15 4 3
-31 -28 -77 -21 -109 42 -187 32 -39 58 -72 58 -73 1 -2 50 2 110 7 70 7 130
19 169 35 34 13 108 38 166 55 58 18 152 52 210 77 62 26 152 55 220 69 158
33 270 67 365 108 62 27 83 32 92 23 7 -7 15 -55 18 -112 4 -55 7 -100 8 -101
1 0 39 -29 85 -63 72 -54 88 -62 118 -59 39 5 41 0 17 -28 -10 -10 -37 -44
-60 -75 -23 -31 -47 -62 -55 -70 -8 -8 -39 -45 -70 -84 -31 -38 -120 -133
-197 -210 -78 -77 -141 -147 -141 -157 0 -9 9 -22 21 -28 18 -10 33 1 141 107
107 105 321 347 388 438 14 19 32 34 40 32 13 -2 14 -22 12 -123 l-4 -120 59
-61 c50 -52 66 -62 113 -73 30 -7 70 -21 89 -32 l34 -19 38 26 c45 30 44 35
23 -110 l-16 -110 43 -75 c95 -167 171 -254 404 -461 174 -156 225 -195 355
-275 95 -58 186 -140 250 -224 18 -25 64 -79 100 -120 95 -107 240 -289 293
-368 58 -87 195 -299 282 -436 38 -59 87 -128 109 -153 38 -44 39 -46 46 -146
7 -92 14 -118 72 -272 36 -93 75 -192 86 -220 64 -154 83 -217 107 -352 30
-164 34 -256 21 -444 -7 -92 -6 -144 4 -195 16 -84 96 -261 166 -364 85 -124
153 -251 174 -321 11 -36 20 -69 20 -73 0 -4 -51 -5 -112 -4 l-113 3 -6 65
c-9 95 -57 217 -146 367 -38 65 -66 97 -138 158 -49 42 -118 109 -153 148 -80
91 -276 382 -314 467 l-30 65 -8 299 c-9 320 -12 336 -59 321 -21 -6 -21 -8
-15 -293 7 -360 20 -428 99 -537 28 -38 89 -126 135 -195 46 -69 114 -159 152
-201 66 -74 91 -114 46 -72 -13 12 -59 39 -103 61 -44 22 -116 61 -160 87 -47
27 -127 60 -195 81 -233 72 -277 86 -370 122 -81 30 -102 43 -140 86 -50 55
-133 138 -202 203 -52 48 -167 109 -288 151 -47 17 -130 51 -185 77 -55 26
-127 57 -160 70 -33 12 -132 58 -220 102 -330 164 -494 281 -660 474 -49 57
-137 156 -195 219 -95 104 -125 142 -211 272 -14 21 -60 76 -102 122 -42 46
-101 122 -132 168 -30 45 -92 136 -137 201 -46 64 -88 125 -93 135 -6 9 -23
39 -39 66 -36 59 -43 51 134 141 69 34 165 93 213 129 136 103 288 201 449
290 55 30 76 49 110 99 23 34 44 64 47 67 19 16 59 86 130 225 66 128 79 160
71 176 -23 42 -48 23 -102 -82 -85 -161 -153 -283 -171 -306 -28 -34 -113
-101 -191 -151 -146 -92 -275 -179 -316 -212 -48 -39 -178 -117 -342 -206
-216 -118 -423 -165 -624 -144 -49 5 -194 10 -323 10 -129 0 -262 5 -295 11
-84 15 -208 56 -291 95 -93 44 -195 146 -221 221 -10 29 -16 54 -13 57 3 4 25
-11 48 -33 48 -45 234 -129 356 -162 102 -27 292 -40 420 -29 321 29 370 38
595 107 103 31 239 95 272 126 7 7 42 32 78 56 36 24 67 45 69 47 6 6 -30 44
-42 44 -5 0 -49 -25 -99 -55 -96 -60 -251 -130 -364 -165 -38 -12 -81 -26 -97
-30 -15 -5 -73 -14 -130 -20 -56 -7 -152 -20 -213 -31 -131 -23 -276 -24 -359
-4 -33 8 -73 15 -90 15 -39 1 -193 65 -290 121 -94 53 -94 66 -5 132 77 57
290 264 290 282 0 14 -30 42 -39 36 -3 -2 -50 -46 -104 -97 -54 -51 -149 -131
-210 -178 -103 -77 -120 -87 -216 -115 -87 -26 -121 -31 -205 -31 -207 1 -393
27 -551 76 -176 56 -160 44 -195 149 -30 90 -32 103 -40 335 -8 240 -13 270
-46 270 -15 0 -89 -85 -89 -103 0 -6 14 -14 30 -17 34 -6 49 -45 21 -56 -18
-7 -146 73 -146 92 0 7 -11 21 -23 31 -34 26 -43 48 -56 128 -15 98 -16 148
-7 235 7 64 16 90 64 179 34 62 91 144 142 205 126 149 222 278 375 507 107
157 166 234 260 334 215 230 330 370 462 565 28 41 61 87 74 101 13 14 48 54
78 88 34 38 93 88 153 127 88 59 109 68 201 89 124 28 126 28 712 243 44 16
114 43 155 60 41 17 129 51 195 77 66 26 161 64 210 85 50 21 178 67 285 101
l195 62 90 88 c76 74 108 116 200 265 145 234 158 247 129 128z m4166 -1379
c11 -13 8 -15 -19 -15 -19 0 -30 -4 -26 -10 3 -5 20 -10 37 -10 19 0 62 -18
109 -46 50 -29 85 -43 97 -40 14 5 22 -1 30 -20 16 -34 10 -42 -43 -50 -42 -6
-77 -25 -217 -119 -78 -52 -243 -213 -464 -453 -115 -124 -224 -242 -243 -261
l-34 -35 -21 27 c-20 24 -27 26 -136 32 -63 3 -151 10 -195 16 -74 10 -88 9
-182 -15 -90 -23 -110 -25 -171 -16 -37 5 -129 10 -203 11 -108 2 -140 -1
-166 -15 -38 -19 -258 -107 -326 -130 -40 -13 -60 -14 -115 -5 -110 17 -115
16 -214 -48 -136 -89 -288 -182 -288 -178 0 3 13 28 28 57 15 29 41 84 57 123
34 80 134 270 176 333 16 24 29 45 29 47 0 2 13 24 30 48 16 24 43 80 60 123
17 43 51 120 76 169 40 82 49 92 87 108 23 9 46 17 50 17 15 0 362 132 426
162 120 56 166 66 266 56 50 -5 109 -13 133 -18 76 -18 157 -12 217 15 83 36
297 90 545 136 131 24 591 27 610 4z m-2406 -241 c11 -81 7 -172 -10 -216 -36
-96 -164 -360 -189 -388 -21 -25 -100 -173 -196 -368 -121 -247 -151 -292
-190 -292 -42 0 -45 20 -9 84 17 30 45 104 61 163 34 121 74 243 97 288 8 17
44 72 80 124 39 56 82 135 106 195 23 56 64 142 91 191 67 120 66 117 50 169
l-14 45 42 25 c63 36 73 34 81 -20z m1802 -6365 c59 -24 82 -41 111 -77 21
-26 53 -65 73 -87 19 -22 58 -84 85 -138 44 -86 63 -111 150 -195 55 -53 121
-108 148 -122 26 -14 46 -29 44 -35 -6 -17 -406 -32 -987 -38 l-315 -4 -93
-41 c-50 -22 -92 -39 -92 -37 0 1 16 26 35 55 19 28 49 79 67 113 43 79 181
224 278 290 l75 52 127 2 c70 1 134 5 141 10 8 4 35 26 61 48 51 42 52 50 21
120 -22 51 -35 97 -29 106 8 14 20 11 100 -22z m6075 -190 c46 -11 91 -27 100
-35 8 -8 20 -14 26 -14 12 0 250 -243 304 -310 43 -53 102 -151 209 -346 75
-138 77 -144 90 -248 15 -119 9 -368 -10 -455 -8 -35 -34 -87 -74 -150 -34
-53 -76 -126 -93 -163 -17 -37 -43 -77 -58 -90 -56 -50 -323 -185 -459 -234
-75 -26 -99 -27 -79 -2 20 25 23 65 7 79 -13 11 -31 8 -112 -19 -152 -50 -283
-65 -682 -78 -146 -4 -246 -12 -310 -25 -147 -29 -481 -53 -549 -40 -30 6 -71
11 -92 11 -40 0 -129 33 -129 48 0 5 59 67 131 136 128 125 149 156 106 164
-10 2 -37 -5 -60 -16 -68 -31 -146 -56 -153 -49 -11 10 103 156 194 249 58 59
83 91 79 102 -8 20 -41 21 -57 1 -20 -24 -31 -18 -24 13 3 15 30 101 60 192
29 91 62 205 74 255 29 124 155 367 326 625 124 189 315 326 523 376 130 32
224 41 452 43 148 1 190 -2 260 -20z m-6657 -84 c0 -5 -32 -37 -71 -70 -45
-38 -90 -90 -124 -142 -128 -195 -178 -274 -232 -370 -32 -57 -60 -103 -61
-103 -2 0 -12 12 -22 28 -20 30 -43 142 -43 213 -1 62 64 194 111 227 18 12
49 33 68 46 51 35 261 161 290 174 29 13 85 11 84 -3z"/>
<path d="M5140 9364 c-82 -18 -149 -51 -223 -109 -48 -39 -64 -60 -97 -128
-79 -169 -105 -299 -98 -498 4 -112 8 -144 29 -193 l24 -60 95 -18 c77 -15
120 -18 225 -13 238 11 272 20 543 142 151 69 153 71 217 146 l65 75 0 109 0
108 -48 90 -48 90 -214 117 c-167 90 -234 121 -297 137 -94 24 -87 24 -173 5z
m378 -413 c18 -22 15 -39 -8 -46 -22 -7 -80 -62 -80 -76 0 -13 -13 -11 -33 4
-16 11 -16 16 -2 62 8 28 15 62 15 77 0 14 6 28 12 30 15 5 77 -28 96 -51z"/>
</g>
</svg>
