<?xml version="1.0" standalone="no"?>
<!DOCTYPE svg PUBLIC "-//W3C//DTD SVG 20010904//EN"
 "http://www.w3.org/TR/2001/REC-SVG-20010904/DTD/svg10.dtd">
<svg version="1.0" xmlns="http://www.w3.org/2000/svg"
 width="1920.000000pt" height="1920.000000pt" viewBox="0 0 1920.000000 1920.000000"
 preserveAspectRatio="xMidYMid meet">
<metadata>
Created by potrace 1.15, written by Peter Selinger 2001-2017
</metadata>
<g transform="translate(0.000000,1920.000000) scale(0.100000,-0.100000)"
fill="#000000" stroke="none">
<path d="M6979 17809 c-122 -18 -227 -87 -406 -266 l-113 -112 0 -75 c0 -45 8
-105 20 -148 23 -85 40 -98 -144 114 -149 171 -133 163 -362 174 -129 6 -147
5 -208 -16 -81 -27 -253 -140 -433 -285 -105 -84 -150 -128 -214 -211 -72 -94
-87 -121 -134 -242 l-52 -137 -134 -35 c-143 -38 -391 -121 -450 -151 -41 -21
-242 -240 -323 -353 -30 -42 -60 -92 -67 -113 -14 -45 -7 -170 21 -338 11 -66
20 -127 20 -135 0 -12 -20 -15 -118 -17 -130 -1 -230 -20 -308 -58 -60 -29
-117 -94 -314 -355 -72 -96 -138 -177 -147 -178 -22 -6 -13 -380 12 -470 22
-80 15 -92 -92 -154 -44 -25 -108 -75 -142 -110 -53 -53 -75 -87 -142 -221
-95 -192 -151 -336 -175 -446 -16 -73 -16 -97 -6 -201 20 -196 64 -299 165
-382 59 -47 77 -67 77 -83 0 -6 -32 -65 -71 -131 -143 -240 -221 -420 -234
-541 -8 -73 29 -432 51 -496 21 -63 65 -98 222 -180 l130 -68 -52 -82 c-133
-213 -205 -509 -194 -801 9 -219 49 -288 197 -332 61 -18 174 -39 326 -60 155
-21 163 -26 94 -55 -112 -48 -245 -117 -276 -143 -45 -38 -73 -102 -73 -166 0
-72 47 -351 72 -425 41 -126 125 -230 221 -276 86 -40 178 -53 345 -46 78 3
142 4 142 2 0 -3 -13 -24 -30 -47 -44 -64 -64 -180 -58 -337 6 -142 21 -197
94 -347 82 -169 194 -263 323 -271 119 -9 391 79 762 247 l113 51 45 -44 c48
-46 102 -84 256 -180 50 -31 121 -83 160 -116 87 -75 145 -104 277 -137 56
-15 104 -28 106 -29 2 -2 -50 -44 -115 -93 -65 -50 -152 -125 -193 -166 -41
-42 -80 -76 -87 -76 -20 0 -168 -319 -178 -386 -10 -63 13 -114 62 -142 56
-31 174 -52 288 -52 52 0 97 -4 100 -10 3 -5 -25 -48 -63 -94 -71 -89 -159
-235 -263 -442 -52 -101 -61 -129 -63 -176 -1 -69 20 -102 89 -138 75 -38 166
-40 272 -5 104 35 117 28 79 -42 -15 -26 -83 -111 -152 -188 -85 -95 -135
-160 -157 -205 l-32 -65 3 -185 c2 -102 8 -202 13 -222 13 -51 54 -73 121 -65
66 8 174 36 227 59 24 10 46 16 49 14 2 -3 -14 -65 -37 -138 -56 -182 -81
-312 -88 -448 -5 -112 -5 -117 27 -195 18 -44 37 -94 42 -112 13 -47 55 -93
84 -93 60 0 93 32 339 335 162 198 283 335 297 335 23 0 -33 -131 -128 -296
-119 -207 -143 -257 -155 -320 -6 -30 -21 -90 -35 -132 -30 -94 -32 -189 -5
-247 25 -55 105 -133 166 -161 85 -40 165 -28 254 40 19 14 38 23 43 20 6 -4
9 -108 7 -253 -3 -237 -2 -248 21 -306 48 -124 142 -311 172 -342 47 -48 71
-44 139 25 46 48 73 91 144 236 49 97 89 175 91 173 10 -9 55 -293 63 -396 11
-140 21 -162 117 -271 78 -89 120 -120 159 -120 40 0 79 41 95 100 13 48 27
201 35 395 4 83 10 168 15 190 l7 40 12 -30 c19 -44 31 -138 31 -241 0 -107
18 -176 68 -259 79 -133 140 -183 209 -170 44 8 98 57 128 114 50 99 106 332
144 601 15 104 31 173 57 243 20 54 38 96 39 95 2 -2 -13 -68 -31 -148 -44
-182 -48 -289 -16 -403 40 -142 86 -207 145 -207 42 0 64 23 110 115 80 162
160 420 197 641 16 93 31 177 34 185 3 7 10 33 16 57 6 23 14 42 18 42 4 0 16
-17 27 -37 53 -98 93 -115 142 -60 30 35 186 335 288 557 32 69 61 129 65 133
7 8 228 -402 249 -463 6 -19 16 -82 22 -139 l10 -104 -31 -38 c-17 -21 -71
-118 -121 -215 -104 -204 -115 -248 -77 -304 32 -48 54 -49 89 -7 17 20 41 37
60 41 17 3 45 21 63 40 l31 35 23 -35 c12 -18 22 -40 22 -47 0 -19 -113 -169
-148 -199 -16 -12 -49 -37 -74 -54 -32 -22 -53 -48 -71 -85 -68 -147 -89 -189
-122 -244 -31 -53 -70 -161 -89 -248 l-7 -29 51 7 50 7 0 -30 c0 -32 -42 -77
-113 -121 -35 -22 -37 -25 -24 -45 52 -78 179 24 283 228 31 62 69 128 85 147
l28 34 1 -48 c0 -44 -32 -125 -109 -277 -14 -27 -17 -56 -16 -130 l2 -94 39
-18 c21 -10 56 -18 77 -18 20 0 37 -5 37 -11 0 -6 -18 -53 -39 -105 -28 -66
-36 -94 -26 -94 7 0 50 35 95 77 88 82 126 144 137 218 5 41 8 45 33 45 40 0
124 27 153 50 30 24 57 128 107 408 34 196 49 235 149 412 92 161 116 236 108
340 -17 216 -157 445 -684 1118 l-144 184 25 41 c52 88 42 95 138 -85 86 -160
91 -167 325 -439 l238 -276 200 -120 c146 -88 224 -128 290 -150 l90 -30 37
-164 c75 -333 111 -610 82 -639 -16 -16 -128 6 -257 50 -74 25 -106 33 -103
23 18 -47 187 -286 247 -349 104 -110 139 -210 117 -334 -19 -111 -105 -200
-278 -288 l-75 -39 -230 23 c-126 12 -245 23 -263 23 l-33 1 3 -107 3 -107 30
-8 c66 -17 299 -38 557 -49 224 -9 277 -14 297 -28 64 -44 78 -50 124 -56 65
-9 92 -36 102 -101 11 -79 39 -138 118 -257 96 -143 178 -241 214 -257 18 -8
48 -41 76 -85 26 -40 58 -82 72 -95 24 -22 27 -23 79 -10 51 12 57 11 97 -9
38 -20 86 -55 188 -137 l34 -28 -5 90 c-4 62 -11 101 -26 129 -32 64 -265 348
-337 412 -74 65 -110 116 -101 140 6 14 25 15 174 10 102 -4 168 -11 170 -17
2 -6 21 -19 42 -30 32 -16 82 -23 272 -36 171 -12 237 -13 250 -5 26 16 46 14
140 -19 111 -39 189 -47 248 -26 65 23 81 21 223 -28 120 -41 127 -42 127 -23
0 38 -41 106 -93 152 -57 52 -200 124 -297 150 -35 9 -89 29 -120 43 -52 23
-69 25 -280 32 -183 7 -247 13 -344 33 -117 25 -246 78 -254 104 -7 24 46 37
178 44 144 8 213 25 267 65 27 21 43 24 111 24 59 0 83 4 92 15 28 33 -47 69
-230 111 -147 33 -233 32 -318 -5 -124 -54 -240 -72 -310 -47 -56 20 -134 72
-206 138 l-58 53 -54 235 c-70 310 -112 659 -130 1081 l-7 166 54 17 c136 44
219 129 320 328 77 153 147 274 181 317 l21 26 -6 -30 c-3 -16 -21 -104 -40
-195 -57 -270 -71 -518 -37 -632 36 -123 125 -123 262 -1 106 94 198 207 249
305 36 71 55 98 69 98 23 0 28 -19 40 -190 13 -189 31 -234 97 -246 74 -14
138 39 273 224 90 123 97 130 135 135 51 7 185 76 269 139 84 63 114 113 142
244 36 161 103 314 139 314 16 0 37 -32 56 -84 17 -46 52 -86 75 -86 44 0 183
195 286 400 61 122 134 344 197 602 92 371 96 405 96 788 0 362 -17 563 -56
664 -10 27 -17 51 -16 52 1 2 45 -4 97 -12 74 -11 142 -13 304 -8 l210 7 125
42 c69 24 204 79 298 124 95 44 181 81 190 81 30 0 134 54 200 104 130 98 248
245 425 529 129 206 204 311 371 517 252 312 321 452 437 887 34 126 113 383
176 572 162 488 187 597 187 816 0 270 -83 687 -190 959 -52 132 -132 289
-201 392 -69 102 -208 254 -293 320 -69 53 -189 118 -244 133 -40 10 -40 11
-41 59 -1 93 -43 166 -183 316 -73 79 -87 100 -83 121 6 33 -17 68 -93 137
-78 71 -96 108 -135 271 -54 229 -91 273 -300 353 -69 26 -85 38 -187 140
-128 128 -177 155 -240 136 -34 -11 -60 -2 -507 168 -373 141 -506 197 -639
266 -144 74 -171 93 -185 121 -8 18 -14 35 -11 37 2 2 36 -4 74 -14 86 -23
213 -26 240 -6 19 14 19 15 2 34 -17 18 -16 21 8 65 l26 46 51 -20 c78 -30
104 -46 121 -73 11 -16 36 -30 74 -41 63 -18 168 -68 196 -93 10 -9 24 -31 32
-48 7 -18 25 -36 44 -43 27 -12 34 -11 57 4 51 33 114 222 115 343 1 104 -30
165 -114 225 -88 64 -121 99 -197 212 -72 106 -94 130 -150 164 -41 25 -113
27 -150 6 -36 -21 -37 -20 -45 32 -25 168 -146 377 -306 527 -148 139 -289
183 -549 173 -315 -13 -465 -97 -672 -374 -147 -197 -205 -325 -215 -473 -5
-75 -2 -103 27 -215 67 -272 183 -576 263 -696 62 -93 124 -156 301 -303 94
-79 188 -162 209 -184 37 -38 38 -41 24 -68 -8 -16 -22 -54 -32 -84 -10 -30
-19 -58 -22 -62 -9 -17 -34 7 -43 41 -13 48 -48 84 -229 234 -279 231 -346
317 -460 591 -52 125 -120 336 -161 501 -30 119 -32 138 -27 244 9 201 63 328
246 571 149 199 292 318 441 370 42 14 81 30 88 34 7 4 12 28 12 53 0 57 -42
139 -119 230 -50 59 -75 77 -246 174 -104 60 -222 123 -260 140 -69 30 -70 31
-71 69 -2 46 -39 117 -108 203 -111 139 -90 126 -347 218 l-234 84 -135 -1
c-104 -1 -150 -6 -203 -21 l-68 -21 -14 28 c-30 58 -205 197 -380 303 -33 20
-116 57 -185 82 -69 26 -140 53 -157 62 -28 13 -51 13 -155 5 -133 -11 -258
-45 -395 -107 l-73 -34 -38 71 c-60 115 -90 142 -236 214 -72 35 -198 86 -280
114 l-149 50 -213 0 c-251 0 -235 4 -458 -118 -82 -45 -152 -82 -155 -82 -3 0
-16 29 -29 64 -13 35 -38 81 -56 102 l-34 39 -419 0 c-231 0 -440 -3 -464 -6z"/>
</g>
</svg>
